<?xml version="1.0" encoding="UTF-8"?>
<svg xmlns="http://www.w3.org/2000/svg" viewBox="0 0 32 32" width="32" height="32">
  <!-- Ears -->
  <ellipse cx="8" cy="6" rx="3.5" ry="4" fill="black"/>
  <ellipse cx="24" cy="6" rx="3.5" ry="4" fill="black"/>
  
  <!-- Head (black circle) -->
  <circle cx="16" cy="10" r="7" fill="black"/>
  
  <!-- Eyes (white dots) -->
  <circle cx="13" cy="9" r="1.2" fill="white"/>
  <circle cx="19" cy="9" r="1.2" fill="white"/>
  
  <!-- Hair/fringe on top (curved white line) -->
  <path d="M 11 5 Q 16 3 21 5" stroke="white" stroke-width="1.8" fill="none"/>
  
  <!-- Arms extending horizontally -->
  <ellipse cx="4" cy="15" rx="2.5" ry="5" fill="black" transform="rotate(-20 4 15)"/>
  <ellipse cx="28" cy="15" rx="2.5" ry="5" fill="black" transform="rotate(20 28 15)"/>
  
  <!-- Torso/body -->
  <rect x="14" y="17" width="4" height="6" fill="black"/>
  
  <!-- Ring/platform in middle -->
  <ellipse cx="16" cy="20" rx="6" ry="1.5" fill="none" stroke="black" stroke-width="2"/>
  
  <!-- Legs in A-shape -->
  <ellipse cx="11" cy="27" rx="2" ry="5" fill="black" transform="rotate(-15 11 27)"/>
  <ellipse cx="21" cy="27" rx="2" ry="5" fill="black" transform="rotate(15 21 27)"/>
</svg> 