<?xml version="1.0" encoding="UTF-8"?>
<svg xmlns="http://www.w3.org/2000/svg" viewBox="0 0 32 32" width="32" height="32">
  <!-- Hair (gray bob cut) -->
  <ellipse cx="16" cy="10" rx="10" ry="8" fill="#A5A5A5"/>
  <ellipse cx="16" cy="12" rx="9" ry="7" fill="#B8B8B8"/>
  
  <!-- Face -->
  <ellipse cx="16" cy="16" rx="7" ry="8" fill="#F4C2A1"/>
  
  <!-- Glasses frame -->
  <ellipse cx="13" cy="14" rx="3" ry="2.5" fill="none" stroke="#333" stroke-width="1.2"/>
  <ellipse cx="19" cy="14" rx="3" ry="2.5" fill="none" stroke="#333" stroke-width="1.2"/>
  <line x1="16" y1="14" x2="16" y2="14" stroke="#333" stroke-width="1"/>
  
  <!-- Eyes behind glasses -->
  <circle cx="13" cy="14" r="1.5" fill="white"/>
  <circle cx="19" cy="14" r="1.5" fill="white"/>
  <circle cx="13" cy="14" r="1" fill="black"/>
  <circle cx="19" cy="14" r="1" fill="black"/>
  <circle cx="13.3" cy="13.7" r="0.3" fill="white"/>
  <circle cx="19.3" cy="13.7" r="0.3" fill="white"/>
  
  <!-- Eyelashes -->
  <line x1="11" y1="12" x2="10.5" y2="11.5" stroke="#333" stroke-width="0.8"/>
  <line x1="12" y1="11.8" x2="11.7" y2="11.3" stroke="#333" stroke-width="0.8"/>
  <line x1="21" y1="12" x2="21.5" y2="11.5" stroke="#333" stroke-width="0.8"/>
  <line x1="20" y1="11.8" x2="20.3" y2="11.3" stroke="#333" stroke-width="0.8"/>
  
  <!-- Nose -->
  <ellipse cx="16" cy="17" rx="0.8" ry="1.2" fill="#E8A882"/>
  
  <!-- Mouth -->
  <path d="M 14.5 19.5 Q 16 20.5 17.5 19.5" stroke="#333" stroke-width="1.2" fill="none"/>
  
  <!-- Body (blue shirt) -->
  <ellipse cx="16" cy="26" rx="8" ry="6" fill="#5DADE2"/>
  <ellipse cx="16" cy="24" rx="6" ry="4" fill="#85C1E9"/>
</svg> 