<?xml version="1.0" encoding="UTF-8"?>
<svg xmlns="http://www.w3.org/2000/svg" viewBox="0 0 32 32" width="32" height="32">
  <!-- Earth base circle (blue) -->
  <circle cx="16" cy="16" r="14" fill="#4A90E2"/>
  
  <!-- Continents (green landmasses) -->
  <!-- North America -->
  <path d="M 6 8 Q 8 6 12 8 Q 14 10 11 12 Q 8 14 6 12 Z" fill="#2E8B57"/>
  
  <!-- Europe/Africa -->
  <path d="M 18 6 Q 22 5 24 8 Q 26 12 22 16 Q 20 18 18 16 Q 16 12 18 8 Z" fill="#2E8B57"/>
  
  <!-- Asia -->
  <path d="M 20 10 Q 25 8 28 12 Q 26 16 24 14 Q 22 12 20 10 Z" fill="#2E8B57"/>
  
  <!-- South America -->
  <path d="M 8 18 Q 12 16 14 20 Q 16 26 12 28 Q 8 26 6 22 Q 6 20 8 18 Z" fill="#2E8B57"/>
  
  <!-- Australia -->
  <path d="M 22 22 Q 26 20 28 24 Q 26 26 24 26 Q 22 24 22 22 Z" fill="#2E8B57"/>
  
  <!-- Grid lines (longitude/latitude) -->
  <circle cx="16" cy="16" r="14" fill="none" stroke="#ffffff" stroke-width="0.5" opacity="0.3"/>
  <ellipse cx="16" cy="16" rx="14" ry="7" fill="none" stroke="#ffffff" stroke-width="0.5" opacity="0.3"/>
  <ellipse cx="16" cy="16" rx="7" ry="14" fill="none" stroke="#ffffff" stroke-width="0.5" opacity="0.3"/>
  <line x1="2" y1="16" x2="30" y2="16" stroke="#ffffff" stroke-width="0.5" opacity="0.3"/>
  <line x1="16" y1="2" x2="16" y2="30" stroke="#ffffff" stroke-width="0.5" opacity="0.3"/>
</svg> 